<?xml version="1.0" encoding="iso-8859-1"?>
<!-- Generator: Adobe Illustrator 19.0.0, SVG Export Plug-In . SVG Version: 6.00 Build 0)  -->
<svg version="1.1" id="Layer_1" xmlns="http://www.w3.org/2000/svg" xmlns:xlink="http://www.w3.org/1999/xlink" x="0px" y="0px"
	 viewBox="0 0 512 512" style="enable-background:new 0 0 512 512;" xml:space="preserve">
<g>
	<g>
		<path d="M256,128c-70.579,0-128,57.421-128,128s57.421,128,128,128s128-57.421,128-128S326.579,128,256,128z M256,358.4
			c-56.559,0-102.4-45.841-102.4-102.4c0-56.559,45.841-102.4,102.4-102.4c56.559,0,102.4,45.841,102.4,102.4
			C358.4,312.559,312.559,358.4,256,358.4z"/>
	</g>
</g>
<g>
	<g>
		<path d="M256,0c-7.074,0-12.8,5.726-12.8,12.8v76.8c0,7.074,5.726,12.8,12.8,12.8c7.074,0,12.8-5.726,12.8-12.8V12.8
			C268.8,5.726,263.074,0,256,0z"/>
	</g>
</g>
<g>
	<g>
		<path d="M256,409.6c-7.074,0-12.8,5.726-12.8,12.8v76.8c0,7.074,5.726,12.8,12.8,12.8c7.074,0,12.8-5.726,12.8-12.8v-76.8
			C268.8,415.326,263.074,409.6,256,409.6z"/>
	</g>
</g>
<g>
	<g>
		<path d="M499.2,243.2h-76.8c-7.074,0-12.8,5.726-12.8,12.8c0,7.074,5.726,12.8,12.8,12.8h76.8c7.074,0,12.8-5.726,12.8-12.8
			C512,248.926,506.274,243.2,499.2,243.2z"/>
	</g>
</g>
<g>
	<g>
		<path d="M89.6,243.2H12.8C5.726,243.2,0,248.926,0,256c0,7.074,5.726,12.8,12.8,12.8h76.8c7.074,0,12.8-5.726,12.8-12.8
			C102.4,248.926,96.674,243.2,89.6,243.2z"/>
	</g>
</g>
<g>
	<g>
		<path d="M437.018,74.982c-5-5.001-13.099-5.001-18.099,0l-54.306,54.306c-5.001,5.001-5.001,13.099,0,18.099
			c5,5,13.099,5,18.099,0l54.306-54.306C442.018,88.081,442.018,79.983,437.018,74.982z"/>
	</g>
</g>
<g>
	<g>
		<path d="M147.388,364.612c-5.001-5.001-13.099-5.001-18.099,0l-54.306,54.306c-5.001,5.001-5.001,13.099,0,18.099
			c5.001,5.001,13.099,5.001,18.099,0l54.306-54.306C152.388,377.711,152.388,369.613,147.388,364.612z"/>
	</g>
</g>
<g>
	<g>
		<path d="M437.018,418.918l-54.306-54.306c-5.001-5.001-13.099-5.001-18.099,0c-5.001,5-5.001,13.099,0,18.099l54.306,54.306
			c5.001,5.001,13.099,5.001,18.099,0C442.018,432.017,442.018,423.919,437.018,418.918z"/>
	</g>
</g>
<g>
	<g>
		<path d="M147.388,129.289L93.082,74.982c-5.001-5.001-13.099-5.001-18.099,0c-5.001,5-5.001,13.099,0,18.099l54.306,54.306
			c5.001,5,13.099,5,18.099,0C152.388,142.387,152.388,134.289,147.388,129.289z"/>
	</g>
</g>
<g>
</g>
<g>
</g>
<g>
</g>
<g>
</g>
<g>
</g>
<g>
</g>
<g>
</g>
<g>
</g>
<g>
</g>
<g>
</g>
<g>
</g>
<g>
</g>
<g>
</g>
<g>
</g>
<g>
</g>
</svg>
